<svg width="584" height="162" viewBox="0 0 584 162" fill="none" xmlns="http://www.w3.org/2000/svg">
<g clip-path="url(#clip0)">
<path d="M212.684 78.2584C208.096 76.5431 203.921 73.9509 200.16 70.4817L208.875 60.8452C210.222 62.2328 211.674 63.4567 213.232 64.507C214.791 65.5671 216.359 66.4247 217.917 67.0896C219.475 67.7546 221.034 68.246 222.582 68.5833C224.131 68.9206 225.641 69.0844 227.113 69.0844C229.402 69.0844 231.336 68.7857 232.933 68.1786C234.53 67.5715 235.713 66.762 236.482 65.7405C237.252 64.719 237.637 63.5048 237.637 62.1268C237.637 61.1632 237.473 60.3055 237.136 59.5442C236.8 58.7926 236.338 58.1276 235.751 57.5591C235.164 56.9905 234.308 56.422 233.183 55.8631C232.057 55.3041 230.893 54.803 229.681 54.3694C228.469 53.9357 226.873 53.4154 224.891 52.8083C223.111 52.2397 221.534 51.7097 220.158 51.2279C218.783 50.746 217.282 50.1389 215.676 49.3969C214.069 48.6549 212.665 47.9225 211.491 47.1805C210.318 46.4385 209.144 45.5519 207.99 44.5112C206.835 43.4705 205.893 42.3719 205.171 41.2059C204.45 40.0398 203.863 38.7004 203.411 37.1778C202.959 35.6552 202.728 34.0363 202.728 32.3113C202.728 28.8422 203.767 25.6814 205.854 22.8097C207.942 19.9476 210.779 17.6927 214.367 16.0448C217.965 14.397 221.928 13.549 226.257 13.4912C235.126 13.4044 243.36 16.1605 250.95 21.7689L242.581 31.5886C236.704 27.2811 231.374 25.1225 226.603 25.1225C224.016 25.1225 221.909 25.7103 220.283 26.886C218.658 28.0616 217.821 29.6709 217.792 31.7235C217.792 32.5426 217.955 33.275 218.292 33.9399C218.629 34.6048 219.081 35.2023 219.648 35.7227C220.216 36.2527 221.072 36.7923 222.198 37.3512C223.323 37.9102 224.449 38.4113 225.574 38.8449C226.699 39.2786 228.219 39.8278 230.134 40.4928C236.251 42.6321 240.292 44.1836 242.273 45.1472C246.842 47.3829 249.882 50.1389 251.392 53.425C252.335 55.4776 252.806 57.8578 252.806 60.5753C252.806 63.3507 252.287 65.8947 251.248 68.1978C250.209 70.501 248.834 72.4187 247.112 73.9412C245.39 75.4638 243.408 76.7647 241.138 77.8344C238.868 78.904 236.54 79.675 234.164 80.1375C231.788 80.6001 229.345 80.841 226.853 80.841C221.996 80.8314 217.272 79.9737 212.684 78.2584Z" fill="#48B8ED"/>
<path d="M265.109 14.2529H292.217C296.545 14.2529 300.374 14.7925 303.683 15.8815C306.992 16.9704 309.657 18.5026 311.667 20.4974C313.687 22.4921 315.197 24.7953 316.198 27.4164C317.208 30.0376 317.708 32.9671 317.708 36.1953C317.708 39.7512 317.073 42.8927 315.794 45.6006C314.514 48.3181 312.696 50.5441 310.33 52.298C307.963 54.0518 305.135 55.3624 301.865 56.2297C298.585 57.1066 294.92 57.5403 290.851 57.5403H279.413V80.0609H265.109V14.2529ZM289.042 46.0053C293.477 46.0053 296.863 45.0995 299.2 43.2878C301.538 41.4761 302.702 39.0188 302.702 35.9159C302.702 32.8129 301.567 30.3556 299.296 28.5439C297.026 26.7322 293.813 25.8264 289.648 25.8264H279.423V45.9957H289.042V46.0053Z" fill="#48B8ED"/>
<path d="M329.502 14.2529H344.066V42.7482H374.049V14.2529H388.661V80.0609H374.049V54.3698H344.066V80.0609H329.502V14.2529Z" fill="#48B8ED"/>
<path d="M404.677 14.2529H451.543V25.9228H418.991V41.7074H445.088V53.1942H418.991V68.4392H453.707V80.0609H404.677V14.2529Z" fill="#48B8ED"/>
<path d="M505.747 80.0609L489.317 57.5403H480.9V80.0609H466.587V14.2529H494.3C498.6 14.2529 502.4 14.7925 505.709 15.8815C509.018 16.9704 511.692 18.5026 513.722 20.4974C515.751 22.4921 517.281 24.7953 518.31 27.4164C519.339 30.0376 519.849 32.9671 519.849 36.1953C519.849 39.6356 519.234 42.6904 518.012 45.35C516.79 48.0194 515.068 50.2261 512.875 51.98C510.672 53.7242 507.998 55.0733 504.833 56.0081V56.1912L522.927 80.0705H505.747V80.0609ZM480.91 46.0535H491.087C495.483 46.0535 498.879 45.138 501.265 43.3167C503.65 41.4954 504.843 39.0285 504.843 35.9255C504.843 32.8225 503.689 30.3652 501.39 28.5535C499.091 26.7419 495.859 25.836 491.693 25.836H480.91V46.0535Z" fill="#48B8ED"/>
<path d="M533.96 14.2529H580.826V25.9228H548.274V41.7074H574.371V53.1942H548.274V68.4392H582.99V80.0609H533.96V14.2529Z" fill="#48B8ED"/>
<path d="M203.363 96.1923H221.476C224.42 96.1923 227.007 96.597 229.229 97.4065C231.451 98.2159 233.24 99.3531 234.587 100.808C235.924 102.273 236.934 103.959 237.598 105.867C238.262 107.775 238.598 109.915 238.598 112.266C238.598 114.955 238.156 117.325 237.281 119.378C236.405 121.43 235.155 123.107 233.529 124.398C231.903 125.69 229.999 126.663 227.796 127.299C225.603 127.945 223.131 128.263 220.379 128.263H209.702V148.047H203.372V96.1923H203.363ZM219.802 122.433C221.909 122.433 223.765 122.172 225.353 121.671C226.94 121.161 228.21 120.438 229.162 119.493C230.114 118.559 230.826 117.47 231.297 116.246C231.769 115.022 232.009 113.654 232.009 112.131C232.009 108.903 231.018 106.407 229.037 104.663C227.055 102.919 224.314 102.042 220.803 102.042H209.702V122.433H219.802Z" fill="#303A5D"/>
<path d="M277.076 135.442H253.99L249.401 148.056H242.745L262.31 96.1923H268.678L288.388 148.056H281.703L277.076 135.442ZM275.046 129.882L265.581 103.969H265.437L256.01 129.882H275.046Z" fill="#303A5D"/>
<path d="M329.79 148.056L316.592 128.272H306.915V148.056H300.585V96.1923H318.949C321.863 96.1923 324.432 96.597 326.635 97.4065C328.837 98.2159 330.627 99.3434 331.993 100.789C333.359 102.234 334.378 103.921 335.052 105.848C335.725 107.775 336.062 109.915 336.062 112.266C336.062 116.564 334.975 120.004 332.81 122.587C330.636 125.169 327.606 126.875 323.72 127.704L323.682 127.771L337.447 148.056H329.79ZM306.905 122.433H317.227C321.334 122.433 324.393 121.498 326.423 119.638C328.453 117.778 329.463 115.273 329.463 112.131C329.463 108.874 328.462 106.378 326.471 104.644C324.48 102.909 321.69 102.042 318.112 102.042H306.905V122.433Z" fill="#303A5D"/>
<path d="M360.871 102.042H345.393V96.1923H382.86V102.042H367.21V148.056H360.88V102.042H360.871Z" fill="#303A5D"/>
<path d="M437.276 96.1923V148.056H430.841L401.848 107.178H401.704V148.056H395.375V96.1923H401.637L430.812 137.504H430.947V96.1923H437.276Z" fill="#303A5D"/>
<path d="M454.091 96.1923H485.758V102.042H460.459V119.397H481.237V125.246H460.459V142.216H487.287V148.066H454.091V96.1923Z" fill="#303A5D"/>
<path d="M530.507 148.056L517.309 128.272H507.632V148.056H501.303V96.1923H519.666C522.581 96.1923 525.149 96.597 527.352 97.4065C529.555 98.2159 531.344 99.3434 532.71 100.789C534.076 102.234 535.095 103.921 535.769 105.848C536.442 107.775 536.779 109.915 536.779 112.266C536.779 116.564 535.692 120.004 533.527 122.587C531.354 125.169 528.323 126.875 524.437 127.704L524.399 127.771L538.164 148.056H530.507ZM507.623 122.433H517.944C522.052 122.433 525.111 121.498 527.14 119.638C529.17 117.778 530.18 115.273 530.18 112.131C530.18 108.874 529.18 106.378 527.188 104.644C525.197 102.909 522.408 102.042 518.829 102.042H507.623V122.433Z" fill="#303A5D"/>
<path d="M556.893 146.524C553.718 145.194 550.881 143.19 548.389 140.501L552.41 135.615C554.238 137.851 556.431 139.557 558.99 140.732C561.548 141.908 564.146 142.496 566.781 142.496C569.985 142.496 572.553 141.792 574.486 140.376C576.42 138.959 577.382 137.032 577.382 134.584C577.382 131.944 576.304 129.872 574.14 128.349C572.88 127.444 570.465 126.326 566.877 124.996L566.839 124.957H566.801H566.762L566.724 124.919H566.685L566.647 124.88H566.608H566.57L566.531 124.842H566.493H566.454L566.416 124.803H566.377L566.339 124.765H566.3H566.262L566.223 124.726H566.185L566.146 124.688H566.108H566.069L566.031 124.649H565.993H565.954L565.916 124.61H565.877L565.839 124.572H565.8H565.762L565.694 124.533C564.386 124.032 563.289 123.608 562.404 123.252C561.519 122.895 560.481 122.433 559.307 121.864C558.134 121.295 557.152 120.737 556.373 120.207C555.594 119.667 554.776 119.021 553.939 118.241C553.093 117.47 552.429 116.67 551.948 115.832C551.458 115.003 551.063 114.03 550.736 112.931C550.409 111.832 550.255 110.657 550.255 109.423C550.255 106.879 550.948 104.557 552.333 102.456C553.718 100.355 555.623 98.6978 558.047 97.5029C560.471 96.2983 563.136 95.7008 566.05 95.7008C568.898 95.6816 571.716 96.1923 574.515 97.233C577.314 98.2738 579.95 99.7867 582.413 101.762L578.603 106.677C576.583 105.01 574.486 103.757 572.293 102.899C570.1 102.042 568.003 101.618 566.012 101.618C564.376 101.618 562.876 101.897 561.51 102.456C560.144 103.015 559.028 103.873 558.143 105.019C557.268 106.176 556.825 107.535 556.825 109.096C556.806 111.428 557.932 113.336 560.202 114.829C561.462 115.687 563.953 116.824 567.676 118.25L567.714 118.289H567.753L567.791 118.327H567.83H567.868L567.907 118.366C572.178 120.033 574.996 121.228 576.372 121.97C579.671 123.734 581.864 125.902 582.951 128.494C583.596 130.036 583.913 131.819 583.913 133.842C583.913 135.692 583.596 137.427 582.971 139.027C582.345 140.626 581.48 142.004 580.393 143.142C579.306 144.279 578.026 145.262 576.564 146.081C575.102 146.9 573.534 147.507 571.851 147.902C570.167 148.297 568.426 148.49 566.618 148.49C563.338 148.519 560.067 147.854 556.893 146.524Z" fill="#303A5D"/>
<path d="M120.713 70.2793C114.403 63.0905 103.225 55.2271 85.0927 54.1381C82.7648 54.0032 80.7929 55.8438 80.7929 58.1758V80.9952C89.3156 80.9952 95.9433 82.9129 100.484 88.0877C104.591 92.771 106.852 99.3624 106.852 106.638C106.852 120.303 98.7137 135.018 80.8602 135.018C51.627 135.018 26.9342 110.281 26.9342 81.0048C26.9342 76.0035 27.6268 71.1659 28.9061 66.5693C28.2232 62.9652 27.8672 59.2455 27.8672 55.4487C27.8576 28.5627 46.4326 0 80.8602 0C41.7672 0 9.07104 27.9267 1.60643 64.9118C0.596399 69.0651 0 74.3749 0 81.0048C0 102.571 8.54198 122.924 24.0387 138.323C39.4201 153.597 59.5918 162.01 80.8506 162.01C115.23 162.01 133.776 133.485 133.776 106.648C133.786 92.8096 129.14 79.8966 120.713 70.2793Z" fill="#48B8ED"/>
<path d="M137.672 23.6866C122.291 8.41271 102.119 0 80.8605 0C46.4329 0 27.8579 28.5627 27.8579 55.4391C27.8579 56.3642 27.8772 57.2796 27.9252 58.1951C27.9349 58.3397 27.9445 58.4842 27.9541 58.6288C27.9926 59.419 28.0503 60.2188 28.1273 60.9993C28.1369 61.0764 28.1465 61.1632 28.1561 61.2403C28.2427 62.0979 28.3389 62.9556 28.4639 63.8132C28.4639 63.8229 28.4639 63.8421 28.4735 63.8518C28.5986 64.7576 28.7525 65.6538 28.916 66.55C30.7149 76.0805 34.8223 84.7727 40.9306 91.7399C47.2313 98.9192 58.3897 106.763 76.5029 107.843C78.8308 107.978 80.8028 106.137 80.8028 103.805V81.0048C72.2993 81.0048 65.6908 79.0968 61.1601 73.9412C57.0622 69.2771 54.8113 62.705 54.8113 55.4487C54.7921 41.7359 62.9493 26.9823 80.8605 26.9823C110.094 26.9823 134.787 51.7193 134.787 81.0048C134.787 86.064 134.075 90.969 132.766 95.6138C133.44 99.189 133.786 102.88 133.786 106.638C133.786 133.476 115.24 162 80.8605 162C125.446 162 161.721 125.661 161.721 80.9952C161.711 59.4382 153.179 39.0858 137.672 23.6866Z" fill="#303A5D"/>
</g>
<defs>
<clipPath id="clip0">
<rect width="584" height="162" fill="white"/>
</clipPath>
</defs>
</svg>
